<svg width="132" height="80" viewBox="0 0 132 80" fill="none" xmlns="http://www.w3.org/2000/svg">
<g clip-path="url(#clip0_312_89)">
<path d="M64.8887 80C64.4555 80 64.0251 79.8878 63.6453 79.6693L59.6864 77.3396C59.0958 77.0118 59.3837 76.8937 59.5795 76.8258C60.3689 76.5541 60.5262 76.4921 61.3691 76.0167C61.4581 75.9665 61.5738 75.9872 61.6629 76.0403L64.7047 77.8356C64.8146 77.8976 64.9718 77.8976 65.0727 77.8356L76.9287 71.0265C77.0385 70.9645 77.1097 70.8375 77.1097 70.7076V57.0952C77.1097 56.9623 77.0385 56.8383 76.9257 56.7704L65.0757 49.9672C64.9659 49.9022 64.8205 49.9022 64.7107 49.9672L52.8636 56.7734C52.7479 56.8383 52.6767 56.9682 52.6767 57.0952V70.7076C52.6767 70.8375 52.7509 70.9615 52.8636 71.0235L56.1103 72.8897C57.8731 73.7667 58.9504 72.7332 58.9504 71.6968V58.2557C58.9504 58.0667 59.1047 57.9161 59.2946 57.9161H60.7993C60.9862 57.9161 61.1435 58.0667 61.1435 58.2557V71.6968C61.1435 74.0354 59.8615 75.3789 57.6327 75.3789C56.9472 75.3789 56.4071 75.3789 54.9024 74.6407L51.7923 72.8602C51.0237 72.4172 50.5488 71.5934 50.5488 70.7076V57.0952C50.5488 56.2094 51.0237 55.3855 51.7923 54.9456L63.6482 48.1305C64.3991 47.7083 65.3962 47.7083 66.1411 48.1305L77.9971 54.9456C78.7657 55.3885 79.2435 56.2123 79.2435 57.0952V70.7076C79.2435 71.5934 78.7657 72.4143 77.9971 72.8602L66.1411 79.6693C65.7583 79.8878 65.328 80 64.8887 80Z" fill="#679E63"/>
<path d="M68.5511 70.619C63.3635 70.619 62.2773 68.2509 62.2773 66.2607C62.2773 66.0717 62.4287 65.9211 62.6186 65.9211H64.15C64.3221 65.9211 64.4645 66.0422 64.4912 66.2105C64.7227 67.7637 65.4112 68.5461 68.5511 68.5461C71.0499 68.5461 72.1123 67.9851 72.1123 66.6652C72.1123 65.9064 71.8096 65.3424 67.9278 64.9615C64.6841 64.6426 62.678 63.928 62.678 61.3472C62.678 58.9673 64.693 57.547 68.0762 57.547C71.8749 57.547 73.7534 58.858 73.9908 61.672C73.9998 61.7695 73.9641 61.861 73.8988 61.9348C73.8336 62.0028 73.7445 62.0441 73.6466 62.0441H72.1093C71.9491 62.0441 71.8096 61.9319 71.7769 61.7783C71.4089 60.1455 70.5097 59.6228 68.0733 59.6228C65.3459 59.6228 65.0284 60.5677 65.0284 61.2764C65.0284 62.1356 65.4023 62.3837 69.0852 62.8679C72.7296 63.3463 74.4597 64.0254 74.4597 66.5737C74.4597 69.1485 72.3082 70.619 68.5511 70.619Z" fill="#679E63"/>
<path d="M85.645 56.3423C85.645 57.5942 84.6181 58.6159 83.3598 58.6159C82.1134 58.6159 81.0747 57.606 81.0747 56.3423C81.0747 55.0548 82.1401 54.0686 83.3598 54.0686C84.5944 54.0686 85.645 55.0548 85.645 56.3423ZM81.4457 56.3363C81.4457 57.3964 82.3033 58.2498 83.3569 58.2498C84.4223 58.2498 85.2799 57.3787 85.2799 56.3363C85.2799 55.2792 84.4104 54.4348 83.3569 54.4348C82.3152 54.4377 81.4457 55.2674 81.4457 56.3363ZM82.5022 55.0666H83.3865C83.6893 55.0666 84.2828 55.0666 84.2828 55.7399C84.2828 56.2094 83.9801 56.3039 83.7991 56.3659C84.1492 56.3895 84.173 56.6198 84.2234 56.9446C84.2472 57.1484 84.2858 57.4968 84.357 57.6179H83.8139C83.802 57.4968 83.716 56.8472 83.716 56.8117C83.6803 56.6671 83.6299 56.5962 83.4489 56.5962H83.0007V57.6179H82.5022V55.0666ZM82.9859 56.1858H83.3836C83.71 56.1858 83.7694 55.9584 83.7694 55.8255C83.7694 55.4771 83.526 55.4771 83.3954 55.4771H82.9859V56.1858Z" fill="#679E63"/>
<path fill-rule="evenodd" clip-rule="evenodd" d="M28.1753 26.7376C28.1753 26.1943 27.8875 25.6952 27.4156 25.4236L14.8444 18.2276C14.6308 18.1036 14.3933 18.0386 14.153 18.0298C14.1322 18.0298 14.0402 18.0298 14.0224 18.0298C13.782 18.0386 13.5446 18.1036 13.3279 18.2276L0.759731 25.4236C0.290834 25.6952 0 26.1943 0 26.7376L0.0267093 46.1197C0.0267093 46.3884 0.166191 46.6394 0.406575 46.7723C0.641023 46.911 0.92889 46.911 1.16037 46.7723L8.63007 42.5173C9.10193 42.2368 9.3898 41.7466 9.3898 41.2063V32.153C9.3898 31.6126 9.67766 31.1136 10.1466 30.8449L13.3279 29.023C13.5653 28.8872 13.8235 28.8193 14.0877 28.8193C14.3459 28.8193 14.6129 28.8872 14.8415 29.023L18.0199 30.8449C18.4917 31.1136 18.7796 31.6126 18.7796 32.153V41.2063C18.7796 41.7437 19.0704 42.2397 19.5393 42.5173L27.0061 46.7723C27.2405 46.911 27.5313 46.911 27.7658 46.7723C27.9973 46.6394 28.1427 46.3884 28.1427 46.1197L28.1753 26.7376Z" fill="#333333"/>
<path fill-rule="evenodd" clip-rule="evenodd" d="M88.6541 0.0945443C88.4196 -0.0353785 88.1318 -0.0324257 87.9003 0.103403C87.6688 0.239231 87.5264 0.487266 87.5264 0.75597V19.9491C87.5264 20.1381 87.4255 20.3123 87.2622 20.4068C87.099 20.5013 86.8942 20.5013 86.731 20.4068L83.5823 18.6026C83.1134 18.3339 82.5347 18.3339 82.0658 18.6026L69.4917 25.8222C69.0228 26.0909 68.7319 26.59 68.7319 27.1303V41.5754C68.7319 42.1157 69.0228 42.6148 69.4917 42.8835L82.0658 50.1089C82.5347 50.3776 83.1134 50.3776 83.5853 50.1089L96.1624 42.8835C96.6313 42.6118 96.9221 42.1157 96.9221 41.5754V5.56902C96.9221 5.02275 96.6253 4.51783 96.1446 4.24912L88.6541 0.0945443ZM87.4878 36.8302C87.4878 36.9661 87.4166 37.0901 87.2979 37.158L82.9798 39.6354C82.8641 39.7033 82.7187 39.7033 82.6 39.6354L78.282 37.158C78.1633 37.0901 78.0921 36.9661 78.0921 36.8302V31.8695C78.0921 31.7337 78.1633 31.6097 78.282 31.5418L82.6 29.0614C82.7187 28.9935 82.8611 28.9935 82.9798 29.0614L87.2979 31.5418C87.4136 31.6097 87.4878 31.7337 87.4878 31.8695V36.8302Z" fill="#333333"/>
<path fill-rule="evenodd" clip-rule="evenodd" d="M130.528 31.7396C130.997 31.4679 131.285 30.9719 131.285 30.4344V26.9324C131.285 26.395 130.997 25.896 130.528 25.6244L118.034 18.4077C117.566 18.1361 116.984 18.1361 116.512 18.4048L103.941 25.6244C103.472 25.8931 103.181 26.3921 103.181 26.9324V41.3716C103.181 41.9149 103.475 42.4169 103.947 42.6856L116.438 49.7693C116.898 50.0321 117.462 50.0351 117.928 49.7782L125.483 45.6C125.724 45.4671 125.872 45.2161 125.875 44.9445C125.878 44.6728 125.733 44.4189 125.495 44.283L112.844 37.0605C112.607 36.9247 112.461 36.6767 112.461 36.405V31.8784C112.461 31.6097 112.607 31.3587 112.841 31.2228L116.779 28.964C117.014 28.8281 117.301 28.8281 117.536 28.964L121.474 31.2228C121.708 31.3587 121.854 31.6067 121.854 31.8784V35.4394C121.854 35.7111 121.999 35.9591 122.234 36.095C122.468 36.2308 122.759 36.2278 122.994 36.092L130.528 31.7396Z" fill="#333333"/>
<path fill-rule="evenodd" clip-rule="evenodd" d="M117.088 31.0634C117.177 31.0103 117.29 31.0103 117.379 31.0634L119.791 32.4483C119.881 32.5014 119.937 32.5959 119.937 32.6993V35.4719C119.937 35.5753 119.881 35.6698 119.791 35.7229L117.379 37.1078C117.29 37.1609 117.177 37.1609 117.088 37.1078L114.678 35.7229C114.589 35.6698 114.533 35.5753 114.533 35.4719V32.6993C114.533 32.5959 114.589 32.5014 114.678 32.4483L117.088 31.0634Z" fill="#679E63"/>
<path d="M49.2077 18.4814C48.7418 18.2127 48.1661 18.2127 47.6972 18.4814L35.1943 25.6597C34.7254 25.9284 34.4375 26.4244 34.4375 26.9619V41.3331C34.4375 41.8705 34.7254 42.3666 35.1913 42.6353L47.6942 49.8194C48.1631 50.0881 48.7388 50.0881 49.2048 49.8194L61.7047 42.6353C62.1706 42.3666 62.4585 41.8705 62.4585 41.3331V26.9619C62.4585 26.4244 62.1706 25.9284 61.7017 25.6597L49.2077 18.4814Z" fill="url(#paint0_linear_312_89)"/>
<path d="M61.7341 25.6597L49.1956 18.4814C49.071 18.4106 48.9404 18.3604 48.8039 18.325L34.7251 42.2869C34.8468 42.4227 34.9892 42.5408 35.1465 42.6323L47.7058 49.8165C48.0619 50.0202 48.4833 50.0675 48.8721 49.9612L62.0695 25.9136C61.9715 25.8191 61.8588 25.7306 61.7341 25.6597Z" fill="url(#paint1_linear_312_89)"/>
<path d="M47.2815 15.8417L47.1094 15.9391H47.3379L47.2815 15.8417Z" fill="url(#paint2_linear_312_89)"/>
<path d="M61.7431 42.6353C62.1081 42.4256 62.3781 42.0772 62.482 41.6786L48.7356 18.3131C48.3765 18.2423 47.9967 18.2954 47.6732 18.4814L35.2178 25.6183L48.6733 50.0054C48.8662 49.9789 49.0532 49.9169 49.2253 49.8194L61.7431 42.6353Z" fill="url(#paint3_linear_312_89)"/>
<path d="M62.9063 42.4021L62.8232 42.2633V42.4493L62.9063 42.4021Z" fill="url(#paint4_linear_312_89)"/>
<path d="M61.7431 42.6353L49.2253 49.8195C49.0532 49.9169 48.8662 49.9789 48.6733 50.0055L48.9226 50.4573L62.8263 42.4493V42.2603L62.482 41.6757C62.3782 42.0743 62.1051 42.4257 61.7431 42.6353Z" fill="url(#paint5_linear_312_89)"/>
<path d="M61.7431 42.6353L49.2253 49.8195C49.0532 49.9169 48.8662 49.9789 48.6733 50.0055L48.9226 50.4573L62.8263 42.4493V42.2603L62.482 41.6757C62.3782 42.0743 62.1051 42.4257 61.7431 42.6353Z" fill="url(#paint6_linear_312_89)"/>
</g>
<defs>
<linearGradient id="paint0_linear_312_89" x1="53.5364" y1="23.8282" x2="42.3313" y2="46.802" gradientUnits="userSpaceOnUse">
<stop stop-color="#3F873F"/>
<stop offset="0.3296" stop-color="#3F8B3D"/>
<stop offset="0.6367" stop-color="#3E9638"/>
<stop offset="0.9341" stop-color="#3DA92E"/>
<stop offset="1" stop-color="#3DAE2B"/>
</linearGradient>
<linearGradient id="paint1_linear_312_89" x1="46.5489" y1="35.8281" x2="78.1332" y2="12.3741" gradientUnits="userSpaceOnUse">
<stop offset="0.1376" stop-color="#3F873F"/>
<stop offset="0.4016" stop-color="#52A044"/>
<stop offset="0.7129" stop-color="#64B749"/>
<stop offset="0.9081" stop-color="#6ABF4B"/>
</linearGradient>
<linearGradient id="paint2_linear_312_89" x1="33.9972" y1="15.8911" x2="62.9072" y2="15.8911" gradientUnits="userSpaceOnUse">
<stop offset="0.0919" stop-color="#6ABF4B"/>
<stop offset="0.2871" stop-color="#64B749"/>
<stop offset="0.5984" stop-color="#52A044"/>
<stop offset="0.8624" stop-color="#3F873F"/>
</linearGradient>
<linearGradient id="paint3_linear_312_89" x1="33.997" y1="34.1444" x2="62.9074" y2="34.1444" gradientUnits="userSpaceOnUse">
<stop offset="0.0919" stop-color="#6ABF4B"/>
<stop offset="0.2871" stop-color="#64B749"/>
<stop offset="0.5984" stop-color="#52A044"/>
<stop offset="0.8624" stop-color="#3F873F"/>
</linearGradient>
<linearGradient id="paint4_linear_312_89" x1="33.9971" y1="42.3564" x2="62.9074" y2="42.3564" gradientUnits="userSpaceOnUse">
<stop offset="0.0919" stop-color="#6ABF4B"/>
<stop offset="0.2871" stop-color="#64B749"/>
<stop offset="0.5984" stop-color="#52A044"/>
<stop offset="0.8624" stop-color="#3F873F"/>
</linearGradient>
<linearGradient id="paint5_linear_312_89" x1="33.997" y1="46.0679" x2="62.9075" y2="46.0679" gradientUnits="userSpaceOnUse">
<stop offset="0.0919" stop-color="#6ABF4B"/>
<stop offset="0.2871" stop-color="#64B749"/>
<stop offset="0.5984" stop-color="#52A044"/>
<stop offset="0.8624" stop-color="#3F873F"/>
</linearGradient>
<linearGradient id="paint6_linear_312_89" x1="67.1194" y1="23.1485" x2="49.4336" y2="59.4096" gradientUnits="userSpaceOnUse">
<stop stop-color="#3F873F"/>
<stop offset="0.3296" stop-color="#3F8B3D"/>
<stop offset="0.6367" stop-color="#3E9638"/>
<stop offset="0.9341" stop-color="#3DA92E"/>
<stop offset="1" stop-color="#3DAE2B"/>
</linearGradient>
<clipPath id="clip0_312_89">
<rect width="131.282" height="80" fill="white"/>
</clipPath>
</defs>
</svg>
